<svg xmlns="http://www.w3.org/2000/svg" width="44" height="44" viewBox="0 0 44 44">
  <g id="Group_26" data-name="Group 26" transform="translate(-250 -396)">
    <rect id="Rectangle_449" data-name="Rectangle 449" width="44" height="44" transform="translate(250 396)" fill="rgba(255,255,255,0)"/>
    <rect id="Rectangle_451" data-name="Rectangle 451" width="44" height="44" transform="translate(250 396)" fill="rgba(255,255,255,0)"/>
    <g id="meldingen_icon" data-name="meldingen icon" transform="translate(250 396)">
      <rect id="Rectangle_441" data-name="Rectangle 441" width="44" height="44" fill="rgba(255,255,255,0)"/>
      <g id="meldingen_icon-2" data-name="meldingen icon" transform="translate(11 10)">
        <path id="Path_9" data-name="Path 9" d="M10.268,21a2,2,0,0,0,3.464,0" transform="translate(-1.201 2)" fill="none" stroke="#fff" stroke-linecap="round" stroke-linejoin="round" stroke-width="2"/>
        <path id="Path_10" data-name="Path 10" d="M3.314,18.88A1.321,1.321,0,0,0,3.1,20.244,1.2,1.2,0,0,0,4.2,21H23.4a1.2,1.2,0,0,0,1.1-.754,1.321,1.321,0,0,0-.21-1.365C22.692,17.144,21,15.3,21,9.6A7.408,7.408,0,0,0,13.8,2,7.408,7.408,0,0,0,6.6,9.6c0,5.7-1.693,7.544-3.286,9.28" transform="translate(-3.001 -2)" fill="none" stroke="#fff" stroke-linecap="round" stroke-linejoin="round" stroke-width="2"/>
      </g>
    </g>
  </g>
</svg>
