<svg id="stadium_icon" data-name="stadium icon" xmlns="http://www.w3.org/2000/svg" xmlns:xlink="http://www.w3.org/1999/xlink" width="44" height="44" viewBox="0 0 44 44">
  <defs>
    <clipPath id="clip-path">
      <rect id="Rectangle_463" data-name="Rectangle 463" width="24" height="22.868" fill="none"/>
    </clipPath>
  </defs>
  <g id="Group_28" data-name="Group 28" transform="translate(10 11)">
    <g id="Group_27" data-name="Group 27" transform="translate(0 0)" clip-path="url(#clip-path)">
      <path id="Path_35" data-name="Path 35" d="M10.635,23.992V18.7h5.4v4.969" transform="translate(-1.336 -2.348)" fill="none" stroke="#fff" stroke-linecap="round" stroke-linejoin="round" stroke-width="2"/>
      <path id="Path_36" data-name="Path 36" d="M4.718,9.658s1.257-3.283,7.951-3.283c6.514,0,7.97,3.283,7.97,3.283" transform="translate(-0.593 -0.8)" fill="none" stroke="#fff" stroke-linecap="round" stroke-linejoin="round" stroke-width="2"/>
      <line id="Line_7" data-name="Line 7" x2="1.459" y2="4.566" transform="translate(8.04 1.2)" fill="none" stroke="#fff" stroke-linecap="round" stroke-linejoin="round" stroke-width="2"/>
      <path id="Path_37" data-name="Path 37" d="M23.251,5.7c0,2.6-4.982,4.7-11.126,4.7S1,8.3,1,5.7,5.981,1,12.125,1,23.251,3.1,23.251,5.7Z" transform="translate(-0.126 -0.125)" fill="none" stroke="#fff" stroke-linecap="round" stroke-linejoin="round" stroke-width="2"/>
      <path id="Path_38" data-name="Path 38" d="M1,6.375l.874,12.152S4.5,22.793,12,22.793c7.193,0,10.374-4.266,10.374-4.266l.874-12.152" transform="translate(-0.126 -0.8)" fill="none" stroke="#fff" stroke-linecap="round" stroke-linejoin="round" stroke-width="2"/>
      <line id="Line_8" data-name="Line 8" x2="2.26" y2="3.914" transform="translate(2.827 2.966)" fill="none" stroke="#fff" stroke-linecap="round" stroke-linejoin="round" stroke-width="2"/>
      <line id="Line_9" data-name="Line 9" x1="2.26" y2="3.914" transform="translate(18.912 2.966)" fill="none" stroke="#fff" stroke-linecap="round" stroke-linejoin="round" stroke-width="2"/>
      <line id="Line_10" data-name="Line 10" x2="1.459" y2="4.566" transform="translate(8.011 1.2)" fill="none" stroke="#fff" stroke-linecap="round" stroke-linejoin="round" stroke-width="2"/>
      <line id="Line_11" data-name="Line 11" x1="1.459" y2="4.566" transform="translate(14.53 1.2)" fill="none" stroke="#fff" stroke-linecap="round" stroke-linejoin="round" stroke-width="2"/>
    </g>
  </g>
  <rect id="Rectangle_464" data-name="Rectangle 464" width="44" height="44" fill="none"/>
</svg>
