<svg id="team_icon" data-name="team icon" xmlns="http://www.w3.org/2000/svg" width="44" height="44" viewBox="0 0 44 44">
  <g id="profile_icon" data-name="profile icon" transform="translate(10 13)">
    <g id="Group_30" data-name="Group 30" transform="translate(7.025 6.475)">
      <path id="Path_39" data-name="Path 39" d="M15.166,20.208V18.472A3.227,3.227,0,0,0,12.262,15H7.9A3.227,3.227,0,0,0,5,18.472v1.736" transform="translate(-5 -8.495)" fill="none" stroke="#fff" stroke-linecap="round" stroke-linejoin="round" stroke-width="2"/>
      <circle id="Ellipse_25" data-name="Ellipse 25" cx="2" cy="2" r="2" transform="translate(3 0)" fill="none" stroke="#fff" stroke-linecap="round" stroke-linejoin="round" stroke-width="2"/>
    </g>
    <path id="Path_39-2" data-name="Path 39" d="M11,19V17.667C11,16.194,10.232,15,9.286,15H6.714C5.768,15,5,16.194,5,17.667V19" transform="translate(-5 -9.02)" fill="none" stroke="#fff" stroke-linecap="round" stroke-linejoin="round" stroke-width="2"/>
    <path id="Path_40" data-name="Path 40" d="M11,19V17.667C11,16.194,10.232,15,9.286,15H6.714C5.768,15,5,16.194,5,17.667V19" transform="translate(13 -9.02)" fill="none" stroke="#fff" stroke-linecap="round" stroke-linejoin="round" stroke-width="2"/>
    <circle id="Ellipse_25-2" data-name="Ellipse 25" cx="1.75" cy="1.75" r="1.75" transform="translate(1.25)" fill="none" stroke="#fff" stroke-linecap="round" stroke-linejoin="round" stroke-width="2"/>
    <circle id="Ellipse_26" data-name="Ellipse 26" cx="1.75" cy="1.75" r="1.75" transform="translate(19.25)" fill="none" stroke="#fff" stroke-linecap="round" stroke-linejoin="round" stroke-width="2"/>
  </g>
  <rect id="Rectangle_472" data-name="Rectangle 472" width="44" height="44" fill="none"/>
</svg>
