<svg id="ticket_link" data-name="ticket link" xmlns="http://www.w3.org/2000/svg" width="44" height="44" viewBox="0 0 44 44">
  <g id="link" transform="translate(8.005 7.995)">
    <path id="Path_44" data-name="Path 44" d="M17.459,11.533a6.514,6.514,0,0,0-9.713-.684l-3.864,3.8a6.251,6.251,0,0,0,0,8.95,6.521,6.521,0,0,0,9.109,0l2.2-2.165" transform="translate(0 0.554)" fill="none" stroke="#fff" stroke-linecap="round" stroke-linejoin="round" stroke-width="2"/>
    <path id="Path_45" data-name="Path 45" d="M2,22.913a6.514,6.514,0,0,0,9.713.684l3.865-3.8a6.251,6.251,0,0,0,0-8.95,6.521,6.521,0,0,0-9.109,0l-2.2,2.165" transform="translate(8.536 -6.99)" fill="none" stroke="#fff" stroke-linecap="round" stroke-linejoin="round" stroke-width="2"/>
  </g>
  <rect id="Rectangle_479" data-name="Rectangle 479" width="44" height="44" fill="none"/>
</svg>
